<svg width="37" height="37" viewBox="0 0 37 37" fill="none" xmlns="http://www.w3.org/2000/svg">
<path d="M4.62506 29.2916H32.3751C32.656 29.2908 32.9314 29.2133 33.1716 29.0675C33.4118 28.9218 33.6077 28.7133 33.7382 28.4645C33.8687 28.2157 33.9289 27.936 33.9123 27.6555C33.8956 27.375 33.8028 27.1044 33.6438 26.8728L19.7688 6.8311C19.1938 6.00015 17.8094 6.00015 17.2328 6.8311L3.35781 26.8728C3.1972 27.1039 3.10302 27.3747 3.08549 27.6556C3.06797 27.9366 3.12776 28.2169 3.25839 28.4662C3.38901 28.7156 3.58547 28.9243 3.82642 29.0699C4.06736 29.2154 4.34358 29.2921 4.62506 29.2916Z" fill="#FFFDFD"/>
</svg>
