<svg width="73" height="82" viewBox="0 0 73 82" fill="none" xmlns="http://www.w3.org/2000/svg">
<path d="M64.3539 6.09395C66.2011 7.24542 67.5618 9.16634 68.1367 11.4343C68.7117 13.7022 68.4538 16.1315 67.4199 18.1878L41.1627 70.3771C40.4977 71.6993 39.5753 72.8391 38.4632 73.713C37.3511 74.5869 36.0774 75.1727 34.7355 75.4276C33.3936 75.6825 32.0174 75.6 30.7078 75.1861C29.3983 74.7722 28.1885 74.0374 27.1672 73.0356L7.26786 53.5249C5.67907 51.9666 4.7115 49.7697 4.57802 47.4173C4.44455 45.065 5.15609 42.75 6.55611 40.9816C7.95614 39.2132 9.92998 38.1363 12.0434 37.9877C14.1568 37.8391 16.2367 38.6311 17.8255 40.1894L31.367 53.4691L53.486 9.50654C53.9982 8.48817 54.6857 7.59208 55.5091 6.86943C56.3325 6.14679 57.2757 5.61174 58.2849 5.29485C59.2941 4.97796 60.3495 4.88543 61.3908 5.02254C62.4321 5.15965 63.439 5.52372 64.3539 6.09395Z" fill="#9747FF"/>
</svg>
